HIERARCHY
ROOT mixamorig:Hips
{
	OFFSET 0.000000 201.639420 0.000000
	CHANNELS 6 Xposition Yposition Zposition Xrotation Yrotation Zrotation
	JOINT mixamorig:Spine
	{
		OFFSET 0.006200 19.524994 -2.481800
		CHANNELS 3 Xrotation Yrotation Zrotation
		JOINT mixamorig:Spine1
		{
			OFFSET -0.000900 22.835007 -2.825400
			CHANNELS 3 Xrotation Yrotation Zrotation
			JOINT mixamorig:Spine2
			{
				OFFSET -0.020600 26.552490 -3.193300
				CHANNELS 3 Xrotation Yrotation Zrotation
				JOINT mixamorig:Neck
				{
					OFFSET -0.060000 30.701813 1.352200
					CHANNELS 3 Xrotation Yrotation Zrotation
					JOINT mixamorig:Head
					{
						OFFSET -0.087200 22.547607 3.670900
						CHANNELS 3 Xrotation Yrotation Zrotation
						JOINT mixamorig:HeadTop_End
						{
							OFFSET -0.830600 40.355194 7.893500
							CHANNELS 3 Xrotation Yrotation Zrotation
							End Site
							{
								OFFSET 0.000000 30.592346 0.000000
							}
						}
						JOINT mixamorig:RightEye
						{
							OFFSET -6.302100 18.118591 16.197100
							CHANNELS 3 Xrotation Yrotation Zrotation
							End Site
							{
								OFFSET 0.000000 30.592346 0.000000
							}
						}
						JOINT mixamorig:LeftEye
						{
							OFFSET 6.741500 18.382690 16.401899
							CHANNELS 3 Xrotation Yrotation Zrotation
							End Site
							{
								OFFSET 0.000000 30.592346 0.000000
							}
						}
					}
				}
				JOINT mixamorig:LeftShoulder
				{
					OFFSET 11.924900 18.230499 1.425400
					CHANNELS 3 Xrotation Yrotation Zrotation
					JOINT mixamorig:LeftArm
					{
						OFFSET 25.435989 -0.697632 -5.229300
						CHANNELS 3 Xrotation Yrotation Zrotation
						JOINT mixamorig:LeftForeArm
						{
							OFFSET 54.684776 0.000000 0.000000
							CHANNELS 3 Xrotation Yrotation Zrotation
							JOINT mixamorig:LeftHand
							{
								OFFSET 55.098175 0.000000 0.000000
								CHANNELS 3 Xrotation Yrotation Zrotation
								JOINT mixamorig:LeftHandMiddle1
								{
									OFFSET 23.369751 0.000000 0.000000
									CHANNELS 3 Xrotation Yrotation Zrotation
									JOINT mixamorig:LeftHandMiddle2
									{
										OFFSET 6.378677 0.000000 0.000000
										CHANNELS 3 Xrotation Yrotation Zrotation
										JOINT mixamorig:LeftHandMiddle3
										{
											OFFSET 6.148331 0.000000 0.000000
											CHANNELS 3 Xrotation Yrotation Zrotation
											JOINT mixamorig:LeftHandMiddle4
											{
												OFFSET 6.582504 0.000000 0.000000
												CHANNELS 3 Xrotation Yrotation Zrotation
												End Site
												{
													OFFSET -1.168900 6.395691 1.028606
												}
											}
										}
									}
								}
								JOINT mixamorig:LeftHandThumb1
								{
									OFFSET 7.235672 -3.848206 5.434273
									CHANNELS 3 Xrotation Yrotation Zrotation
									JOINT mixamorig:LeftHandThumb2
									{
										OFFSET 6.568451 -3.792297 3.792300
										CHANNELS 3 Xrotation Yrotation Zrotation
										JOINT mixamorig:LeftHandThumb3
										{
											OFFSET 6.063080 -3.500519 3.500518
											CHANNELS 3 Xrotation Yrotation Zrotation
											JOINT mixamorig:LeftHandThumb4
											{
												OFFSET 4.793182 -2.767334 2.767349
												CHANNELS 3 Xrotation Yrotation Zrotation
												End Site
												{
													OFFSET 0.101639 6.054260 1.275483
												}
											}
										}
									}
								}
								JOINT mixamorig:LeftHandIndex1
								{
									OFFSET 23.101074 -0.309540 4.992809
									CHANNELS 3 Xrotation Yrotation Zrotation
									JOINT mixamorig:LeftHandIndex2
									{
										OFFSET 6.226883 0.000000 0.000000
										CHANNELS 3 Xrotation Yrotation Zrotation
										JOINT mixamorig:LeftHandIndex3
										{
											OFFSET 6.094330 0.000000 0.000000
											CHANNELS 3 Xrotation Yrotation Zrotation
											JOINT mixamorig:LeftHandIndex4
											{
												OFFSET 5.482605 0.000000 0.000000
												CHANNELS 3 Xrotation Yrotation Zrotation
												End Site
												{
													OFFSET -1.427902 5.233032 0.797164
												}
											}
										}
									}
								}
								JOINT mixamorig:LeftHandRing1
								{
									OFFSET 22.299240 0.021149 -3.964172
									CHANNELS 3 Xrotation Yrotation Zrotation
									JOINT mixamorig:LeftHandRing2
									{
										OFFSET 6.321869 0.000000 0.000000
										CHANNELS 3 Xrotation Yrotation Zrotation
										JOINT mixamorig:LeftHandRing3
										{
											OFFSET 5.899796 0.000000 0.000000
											CHANNELS 3 Xrotation Yrotation Zrotation
											JOINT mixamorig:LeftHandRing4
											{
												OFFSET 6.517899 0.000000 0.000000
												CHANNELS 3 Xrotation Yrotation Zrotation
												End Site
												{
													OFFSET -1.637299 6.232208 0.980890
												}
											}
										}
									}
								}
								JOINT mixamorig:LeftHandPinky1
								{
									OFFSET 20.463791 -0.302338 -8.562233
									CHANNELS 3 Xrotation Yrotation Zrotation
									JOINT mixamorig:LeftHandPinky2
									{
										OFFSET 6.908646 0.000000 0.000000
										CHANNELS 3 Xrotation Yrotation Zrotation
										JOINT mixamorig:LeftHandPinky3
										{
											OFFSET 4.622849 0.000000 0.000000
											CHANNELS 3 Xrotation Yrotation Zrotation
											JOINT mixamorig:LeftHandPinky4
											{
												OFFSET 5.216080 0.000000 0.000000
												CHANNELS 3 Xrotation Yrotation Zrotation
												End Site
												{
													OFFSET -0.606308 5.116241 0.814926
												}
											}
										}
									}
								}
							}
						}
					}
				}
				JOINT mixamorig:RightShoulder
				{
					OFFSET -12.001300 18.284088 1.348900
					CHANNELS 3 Xrotation Yrotation Zrotation
					JOINT mixamorig:RightArm
					{
						OFFSET -25.308500 -0.751312 -5.164599
						CHANNELS 3 Xrotation Yrotation Zrotation
						JOINT mixamorig:RightForeArm
						{
							OFFSET -54.684429 0.000000 0.000000
							CHANNELS 3 Xrotation Yrotation Zrotation
							JOINT mixamorig:RightHand
							{
								OFFSET -55.150291 0.000000 0.000000
								CHANNELS 3 Xrotation Yrotation Zrotation
								JOINT mixamorig:RightHandMiddle1
								{
									OFFSET -23.317566 0.000000 0.000000
									CHANNELS 3 Xrotation Yrotation Zrotation
									JOINT mixamorig:RightHandMiddle2
									{
										OFFSET -6.378403 0.000000 0.000000
										CHANNELS 3 Xrotation Yrotation Zrotation
										JOINT mixamorig:RightHandMiddle3
										{
											OFFSET -6.148193 0.000000 0.000000
											CHANNELS 3 Xrotation Yrotation Zrotation
											JOINT mixamorig:RightHandMiddle4
											{
												OFFSET -6.583389 0.000000 0.000000
												CHANNELS 3 Xrotation Yrotation Zrotation
												End Site
												{
													OFFSET 1.171692 6.395905 1.029786
												}
											}
										}
									}
								}
								JOINT mixamorig:RightHandThumb1
								{
									OFFSET -7.190521 -3.860474 5.435846
									CHANNELS 3 Xrotation Yrotation Zrotation
									JOINT mixamorig:RightHandThumb2
									{
										OFFSET -6.567429 -3.791718 3.791708
										CHANNELS 3 Xrotation Yrotation Zrotation
										JOINT mixamorig:RightHandThumb3
										{
											OFFSET -6.062469 -3.500153 3.500166
											CHANNELS 3 Xrotation Yrotation Zrotation
											JOINT mixamorig:RightHandThumb4
											{
												OFFSET -4.792618 -2.767029 2.767022
												CHANNELS 3 Xrotation Yrotation Zrotation
												End Site
												{
													OFFSET -0.100327 6.053253 1.276754
												}
											}
										}
									}
								}
								JOINT mixamorig:RightHandIndex1
								{
									OFFSET -23.048981 -0.310791 4.992554
									CHANNELS 3 Xrotation Yrotation Zrotation
									JOINT mixamorig:RightHandIndex2
									{
										OFFSET -6.227539 0.000000 0.000000
										CHANNELS 3 Xrotation Yrotation Zrotation
										JOINT mixamorig:RightHandIndex3
										{
											OFFSET -6.095047 0.000000 0.000000
											CHANNELS 3 Xrotation Yrotation Zrotation
											JOINT mixamorig:RightHandIndex4
											{
												OFFSET -5.484772 0.000000 0.000000
												CHANNELS 3 Xrotation Yrotation Zrotation
												End Site
												{
													OFFSET 1.420593 5.237305 0.797056
												}
											}
										}
									}
								}
								JOINT mixamorig:RightHandRing1
								{
									OFFSET -22.246323 0.020569 -3.963762
									CHANNELS 3 Xrotation Yrotation Zrotation
									JOINT mixamorig:RightHandRing2
									{
										OFFSET -6.322128 0.000000 0.000000
										CHANNELS 3 Xrotation Yrotation Zrotation
										JOINT mixamorig:RightHandRing3
										{
											OFFSET -5.900024 0.000000 0.000000
											CHANNELS 3 Xrotation Yrotation Zrotation
											JOINT mixamorig:RightHandRing4
											{
												OFFSET -6.518356 0.000000 0.000000
												CHANNELS 3 Xrotation Yrotation Zrotation
												End Site
												{
													OFFSET 1.636398 6.232697 0.982186
												}
											}
										}
									}
								}
								JOINT mixamorig:RightHandPinky1
								{
									OFFSET -20.411011 -0.303314 -8.561701
									CHANNELS 3 Xrotation Yrotation Zrotation
									JOINT mixamorig:RightHandPinky2
									{
										OFFSET -6.907349 0.000000 0.000000
										CHANNELS 3 Xrotation Yrotation Zrotation
										JOINT mixamorig:RightHandPinky3
										{
											OFFSET -4.623840 0.000000 0.000000
											CHANNELS 3 Xrotation Yrotation Zrotation
											JOINT mixamorig:RightHandPinky4
											{
												OFFSET -5.218353 0.000000 0.000000
												CHANNELS 3 Xrotation Yrotation Zrotation
												End Site
												{
													OFFSET 0.602097 5.118835 0.816273
												}
											}
										}
									}
								}
							}
						}
					}
				}
			}
		}
	}
	JOINT mixamorig:LeftUpLeg
	{
		OFFSET 18.168400 -13.561905 -0.039000
		CHANNELS 3 Xrotation Yrotation Zrotation
		JOINT mixamorig:LeftLeg
		{
			OFFSET 0.577358 -80.825211 -3.695000
			CHANNELS 3 Xrotation Yrotation Zrotation
			JOINT mixamorig:LeftFoot
			{
				OFFSET -0.577356 -83.370262 -6.520700
				CHANNELS 3 Xrotation Yrotation Zrotation
				JOINT mixamorig:LeftToeBase
				{
					OFFSET 0.750401 -20.798306 25.135401
					CHANNELS 3 Xrotation Yrotation Zrotation
					JOINT mixamorig:LeftToe_End
					{
						OFFSET -0.000500 0.001200 19.917799
						CHANNELS 3 Xrotation Yrotation Zrotation
						End Site
						{
							OFFSET 0.000000 19.917805 0.000000
						}
					}
				}
			}
		}
	}
	JOINT mixamorig:RightUpLeg
	{
		OFFSET -18.162500 -13.585098 -0.041000
		CHANNELS 3 Xrotation Yrotation Zrotation
		JOINT mixamorig:RightLeg
		{
			OFFSET -0.595024 -80.945297 -3.631900
			CHANNELS 3 Xrotation Yrotation Zrotation
			JOINT mixamorig:RightFoot
			{
				OFFSET 0.595024 -83.218193 -6.561200
				CHANNELS 3 Xrotation Yrotation Zrotation
				JOINT mixamorig:RightToeBase
				{
					OFFSET -0.753601 -20.807106 25.115000
					CHANNELS 3 Xrotation Yrotation Zrotation
					JOINT mixamorig:RightToe_End
					{
						OFFSET 0.000299 0.001700 19.918200
						CHANNELS 3 Xrotation Yrotation Zrotation
						End Site
						{
							OFFSET 0.000000 19.918203 0.000000
						}
					}
				}
			}
		}
	}
}
MOTION
Frames: 4
Frame Time: 0.033333
-2.060916 187.482819 -0.518552 -5.660287 -42.391972 -2.532088 5.902101 0.472287 -0.205681 11.805245 0.991253 -0.356034 11.805241 0.991258 -0.356034 5.454846 -28.041992 -1.570759 -9.679880 -42.734550 2.179717 -0.000000 0.000002 0.000000 -0.000000 0.000002 0.000000 -0.000000 0.000002 0.000000 0.953414 -3.294052 -6.337559 -7.803587 10.695466 -60.595697 -1.858049 -56.426344 -5.060465 4.516203 -4.170915 22.267607 0.107960 6.609284 -47.483875 -2.786362 -4.412156 -56.251246 0.000008 0.000003 -0.000006 0.000002 0.000002 0.000001 11.334903 9.730363 -4.479179 3.334373 8.219274 1.772085 -0.000002 0.000007 -0.000006 0.000000 0.000001 -0.000002 2.657362 -3.651127 -37.231464 -2.225266 -2.598661 -50.721979 0.000003 -0.000008 0.000004 -0.000000 0.000000 0.000000 -2.805049 11.224164 -62.315374 -2.190478 -4.064424 -66.809290 -0.000005 -0.000000 -0.000006 0.000003 0.000001 -0.000002 -6.755478 4.974047 -66.027951 -1.326976 -6.176987 -73.865627 -0.000005 -0.000002 -0.000013 0.000000 0.000001 -0.000002 1.781016 9.143872 7.041889 5.733449 -24.152580 68.587653 -7.143971 60.700246 7.121748 7.495360 6.265638 -16.551766 -1.797315 -0.803641 42.426891 -4.426249 4.278489 82.714581 0.000004 -0.000003 0.000006 -0.000001 0.000000 -0.000003 2.659614 -9.639237 12.705359 9.977284 -18.153789 0.046834 0.000000 0.000002 -0.000006 -0.000001 -0.000000 0.000002 3.448077 -2.832150 46.578140 -2.544549 2.250466 60.768890 0.000003 -0.000003 -0.000001 -0.000000 -0.000003 -0.000003 -4.363429 -0.803139 50.285362 -4.892172 5.732344 89.686012 0.000005 0.000003 -0.000006 -0.000000 -0.000003 0.000003 -8.591785 0.616676 50.078851 -5.070518 9.380857 93.712197 -0.000002 0.000001 -0.000006 -0.000001 -0.000002 0.000002 -28.507150 4.583484 11.428717 36.139074 -12.274226 2.231352 -5.445385 0.577131 -9.792884 -2.715878 -3.120907 0.659117 0.000000 -0.000001 0.000000 -4.451462 -14.118739 -16.233753 32.834857 18.723109 -4.569522 -26.539264 -1.567848 5.227560 -1.576685 -1.962088 2.928648 -0.000000 0.000001 0.000000 
-2.116179 187.822693 -0.484203 -5.872329 -46.230815 -2.825055 5.994624 -0.057016 -0.116567 11.989269 -0.070029 -0.121168 11.989278 -0.070040 -0.121165 4.858836 -27.854889 -2.018472 -8.864677 -43.760274 3.691629 -0.000000 -0.000001 -0.000001 -0.000000 -0.000001 -0.000001 -0.000000 -0.000001 -0.000001 0.810229 -4.308830 -6.381132 -6.676096 12.150732 -60.876725 -2.277385 -57.498663 -5.268911 4.466194 -4.693815 22.282232 0.327759 6.910706 -45.419757 -2.561323 -4.255984 -53.740765 0.000004 0.000003 -0.000006 0.000002 -0.000004 -0.000002 10.967470 9.825540 -4.124770 3.258297 8.415872 1.703278 -0.000002 0.000006 -0.000001 0.000003 0.000002 -0.000000 2.194163 -4.002808 -35.091135 -1.993684 -2.401480 -48.208937 0.000003 -0.000007 0.000002 -0.000001 0.000001 -0.000004 -2.325149 11.481196 -60.605484 -2.055397 -4.005509 -64.391253 -0.000003 -0.000003 -0.000003 0.000000 -0.000002 0.000001 -5.502792 5.688513 -64.103108 -1.276577 -6.162470 -71.433854 -0.000002 -0.000005 -0.000009 0.000000 0.000001 -0.000000 1.951315 7.799974 7.121223 6.182287 -23.943566 68.623853 -6.650478 61.549212 7.002520 7.654163 6.217754 -17.779973 -1.858070 -0.736063 43.602907 -4.552174 4.293538 84.138764 -0.000001 -0.000002 0.000005 0.000001 -0.000003 0.000000 2.794243 -9.711127 12.808135 10.023101 -18.127602 0.049071 -0.000001 0.000001 -0.000002 -0.000002 0.000000 -0.000002 3.955471 -2.272763 48.348034 -2.630143 2.296984 61.736905 0.000003 0.000007 -0.000006 -0.000002 -0.000003 0.000001 -4.541477 -0.832926 51.507495 -5.016373 5.732382 91.119730 0.000002 0.000003 -0.000007 -0.000001 0.000003 -0.000001 -8.806177 0.435163 51.132060 -5.163171 9.357135 94.720783 0.000004 0.000004 -0.000007 0.000002 0.000005 -0.000002 -27.369772 5.330585 12.509527 35.514409 -9.667172 1.907457 -5.644771 0.664124 -10.450692 -2.671766 -3.066280 0.628142 0.000000 -0.000002 0.000000 -6.221224 -13.773926 -16.633951 33.463853 19.804079 -5.240940 -25.840638 -1.495240 5.645366 -1.356163 -1.475270 2.774606 0.000000 0.000001 0.000000 
-2.176723 188.128036 -0.451742 -6.129416 -50.058914 -3.114901 6.063646 -0.580881 -0.042495 12.129430 -1.118524 0.088672 12.129426 -1.118530 0.088673 4.097775 -27.486778 -2.682840 -7.896994 -44.635016 5.189463 -0.000000 0.000003 -0.000000 -0.000000 0.000003 -0.000000 -0.000000 0.000003 -0.000000 0.680394 -5.223105 -6.405295 -5.606940 13.591772 -61.004770 -2.951100 -58.492060 -5.571341 4.296767 -4.406519 22.079063 0.564809 7.231718 -42.998711 -2.318209 -4.069925 -50.932707 0.000004 -0.000004 -0.000006 0.000001 0.000003 0.000004 10.551411 9.759169 -3.787401 3.214261 8.658584 1.605030 0.000002 0.000006 -0.000002 0.000001 0.000002 -0.000003 1.707589 -4.311734 -32.615851 -1.740294 -2.164380 -45.342655 0.000003 -0.000012 0.000002 -0.000001 0.000004 0.000000 -1.795392 11.719166 -58.472853 -1.905360 -3.931828 -61.649110 -0.000005 -0.000001 -0.000006 -0.000001 -0.000002 0.000001 -4.156396 6.506153 -61.770530 -1.219226 -6.143072 -68.627774 -0.000003 -0.000005 -0.000007 0.000000 -0.000002 0.000002 2.096436 6.732504 7.083144 6.919940 -24.109955 68.744263 -6.249807 62.398320 6.854608 7.748985 6.224245 -19.022090 -1.910124 -0.701817 44.634538 -4.673234 4.305024 85.504174 0.000004 0.000001 0.000004 -0.000002 -0.000001 0.000002 3.203398 -9.588706 13.059593 9.959629 -18.211494 -0.063796 0.000000 0.000002 -0.000008 0.000002 0.000001 0.000004 4.551085 -1.713759 49.999409 -2.710291 2.338782 62.635116 0.000003 0.000003 -0.000006 0.000003 -0.000003 -0.000000 -4.683908 -0.862932 52.477177 -5.129153 5.729450 92.422507 0.000002 0.000004 -0.000009 0.000000 -0.000000 0.000002 -8.997547 0.272886 52.076501 -5.271515 9.342685 96.280334 0.000004 -0.000000 -0.000001 -0.000002 0.000003 -0.000002 -26.177132 6.060889 13.434223 34.904886 -6.974431 1.605341 -5.815147 0.756888 -11.149036 -2.647457 -3.011315 0.592854 -0.000000 0.000001 0.000000 -8.027432 -13.322006 -16.911861 34.193945 20.579669 -5.940990 -25.092045 -1.452795 6.159174 -1.245896 -1.155884 2.637935 -0.000000 0.000002 0.000000 
-2.225547 188.397278 -0.356151 -6.429091 -53.824274 -3.351836 6.115388 -0.984550 -0.018142 12.236339 -1.929283 0.195222 12.236339 -1.929294 0.195222 3.276579 -27.275165 -3.245352 -6.881264 -45.421414 6.565915 0.000001 -0.000000 -0.000001 0.000001 -0.000000 -0.000001 0.000001 -0.000000 -0.000001 0.531308 -6.264058 -6.402719 -4.795703 14.743344 -60.737362 -3.860283 -59.339919 -6.069083 3.864307 -3.604918 22.453465 0.802448 7.563248 -40.259283 -2.062276 -3.852100 -47.847927 0.000007 0.000003 -0.000007 -0.000001 0.000000 -0.000000 10.120275 9.653139 -3.503437 3.209467 8.893676 1.489518 -0.000001 0.000007 -0.000000 0.000001 0.000000 -0.000001 1.221490 -4.547186 -29.862287 -1.481560 -1.895659 -42.261864 0.000004 -0.000007 0.000001 -0.000001 -0.000000 0.000001 -1.237577 11.901600 -56.096699 -1.743781 -3.842039 -58.612920 -0.000003 -0.000000 -0.000004 -0.000002 -0.000002 0.000001 -2.803737 7.406715 -59.135115 -1.157352 -6.118536 -65.536212 -0.000006 -0.000002 -0.000009 0.000002 0.000000 0.000001 2.274330 5.224276 7.362090 7.458088 -24.432169 68.517773 -6.275176 63.212697 7.014528 7.681236 6.366286 -19.964943 -1.964355 -0.652701 45.652472 -4.791479 4.313483 86.836266 0.000000 -0.000002 0.000004 -0.000001 0.000004 0.000003 3.091058 -9.838352 13.000780 10.129095 -18.142441 0.082720 0.000003 0.000002 -0.000003 -0.000001 -0.000001 0.000002 5.172538 -1.062565 51.678536 -2.786772 2.377250 63.486752 0.000001 0.000004 -0.000006 -0.000001 -0.000001 0.000001 -4.838803 -0.901286 53.562531 -5.248179 5.724052 93.798319 -0.000000 0.000005 -0.000011 -0.000004 -0.000000 0.000004 -9.264183 0.196893 53.156138 -5.369816 9.332295 97.608949 0.000000 0.000003 -0.000008 0.000002 0.000002 0.000001 -24.975697 6.769817 14.109564 34.393810 -4.204323 1.315762 -6.016547 0.841783 -11.727338 -2.606815 -2.932347 0.543371 -0.000000 0.000000 -0.000000 -9.865541 -12.820364 -17.153421 35.010522 21.094648 -6.669358 -24.334207 -1.414730 6.672994 -1.078538 -0.935871 2.517933 0.000000 -0.000003 -0.000000 
